<svg width="480" height="452" viewBox="0 0 480 452" fill="none" xmlns="http://www.w3.org/2000/svg">
<g id="undraw_profile_details_re_ch9r 1" clip-path="url(#clip0_1_2)">
<g id="form">
<path id="Vector" d="M242.693 28H29.3154C25.256 28.0032 21.3637 29.5524 18.4925 32.3075C15.6213 35.0627 14.0056 38.7988 14 42.6963V227.296C14.0053 231.194 15.6205 234.931 18.4916 237.688C21.3627 240.444 25.2551 241.995 29.3154 242H242.693C246.752 241.995 250.644 240.443 253.513 237.687C256.383 234.93 257.997 231.193 258 227.296V42.6963C257.996 38.7997 256.382 35.0637 253.513 32.3084C250.643 29.5531 246.752 28.0036 242.693 28V28Z" fill="white"/>
<path id="Vector_2" d="M148.549 60.6881H124.461C123.278 60.6881 122.143 60.2304 121.307 59.4158C120.47 58.6011 120 57.4962 120 56.3441C120 55.1919 120.47 54.087 121.307 53.2723C122.143 52.4577 123.278 52 124.461 52H148.549C149.732 52 150.867 52.4577 151.703 53.2723C152.54 54.087 153.01 55.1919 153.01 56.3441C153.01 57.4962 152.54 58.6011 151.703 59.4158C150.867 60.2304 149.732 60.6881 148.549 60.6881Z" fill="#6C63FF"/>
<path id="Vector_3" d="M210.451 150.688H61.4608C60.2777 150.688 59.1431 150.23 58.3065 149.416C57.47 148.601 57 147.496 57 146.344C57 145.192 57.47 144.087 58.3065 143.272C59.1431 142.458 60.2777 142 61.4608 142H210.451C211.634 142 212.769 142.458 213.605 143.272C214.442 144.087 214.912 145.192 214.912 146.344C214.912 147.496 214.442 148.601 213.605 149.416C212.769 150.23 211.634 150.688 210.451 150.688Z" fill="#E6E6E6"/>
<path id="Vector_4" d="M210.451 176.688H61.4608C60.2777 176.688 59.1431 176.23 58.3065 175.416C57.47 174.601 57 173.496 57 172.344C57 171.192 57.47 170.087 58.3065 169.272C59.1431 168.458 60.2777 168 61.4608 168H210.451C211.634 168 212.769 168.458 213.605 169.272C214.442 170.087 214.912 171.192 214.912 172.344C214.912 173.496 214.442 174.601 213.605 175.416C212.769 176.23 211.634 176.688 210.451 176.688Z" fill="#E6E6E6"/>
<path id="Vector_5" d="M210.537 206H61.4633C60.2795 206 59.1443 205.579 58.3072 204.828C57.4702 204.078 57 203.061 57 202C57 200.939 57.4702 199.922 58.3072 199.172C59.1443 198.421 60.2795 198 61.4633 198H210.537C211.72 198 212.856 198.421 213.693 199.172C214.53 199.922 215 200.939 215 202C215 203.061 214.53 204.078 213.693 204.828C212.856 205.579 211.72 206 210.537 206Z" fill="#E6E6E6"/>
<path id="Vector_6" d="M180.75 77H92.2588C87.9494 77.0033 83.8173 78.5959 80.7692 81.4283C77.7211 84.2607 76.006 88.1016 76 92.1083V116.883C76.0056 120.891 77.7204 124.733 80.7683 127.567C83.8162 130.4 87.9484 131.995 92.2588 132H180.75C185.06 131.994 189.191 130.4 192.237 127.566C195.284 124.732 196.996 120.89 197 116.883V92.1083C196.996 88.1025 195.283 84.2617 192.236 81.4292C189.19 78.5966 185.059 77.0037 180.75 77ZM195.207 116.883C195.207 120.45 193.683 123.872 190.97 126.394C188.257 128.916 184.578 130.333 180.741 130.333H117.218C106.762 130.333 96.7338 126.471 89.3401 119.597C81.9463 112.723 77.7926 103.399 77.7926 93.6773V92.1083C77.7987 88.5437 79.325 85.1268 82.0369 82.607C84.7488 80.0872 88.4248 78.6701 92.2588 78.6667H180.75C184.583 78.6705 188.258 80.0879 190.968 82.6078C193.679 85.1278 195.203 88.5445 195.207 92.1083V116.883Z" fill="#E6E6E6"/>
<path id="Vector_7" d="M136.167 111.54C144.543 111.54 151.333 104.927 151.333 96.7698C151.333 88.6127 144.543 82 136.167 82C127.79 82 121 88.6127 121 96.7698C121 104.927 127.79 111.54 136.167 111.54Z" fill="#E6E6E6"/>
<path id="Vector_8" d="M169.902 130.136L102 129.901L123.412 124.688L126.079 116.113L146.608 116L152.755 124.48L168.278 128.398L169.688 128.754L169.902 130.136Z" fill="#E6E6E6"/>
<path id="Vector_9" d="M126.547 103.368C129.802 100.891 125.353 89.9927 130.727 92.3189C130.727 92.3189 137.296 88.2481 138.616 90.9232C140.144 94.0208 145.579 92.6155 148.917 91.5222C148.655 90.9283 148.468 90.3052 148.362 89.667C148.978 90.1399 149.631 90.5657 150.315 90.9407C150.773 90.7021 151.179 90.378 151.509 89.9869C151.835 89.6237 152.038 89.1722 152.093 88.6929C152.147 88.2137 152.05 87.7297 151.814 87.3059C151.258 86.4743 150.112 86.2184 149.437 85.4799C149.359 85.376 149.308 85.2553 149.288 85.128C149.269 85.0008 149.281 84.8708 149.325 84.7493C149.405 84.4521 149.417 84.1414 149.36 83.8391C149.303 83.5369 149.179 83.2506 148.995 83.0007C148.811 82.7507 148.573 82.5433 148.298 82.3932C148.023 82.243 147.717 82.1539 147.402 82.1321C147.275 82.1359 147.15 82.1092 147.036 82.0545C146.47 81.7168 145.946 81.3147 145.478 80.8565C146.26 80.8914 145.303 76.2281 137.547 77.1113C135.594 77.0416 134.575 79.1388 132.652 79.4703C127.991 76.8765 123.83 80.6181 121.805 84.1946C119.781 87.7712 117.589 99.2975 126.547 103.368Z" fill="#E6E6E6"/>
<path id="Vector_10" d="M242.693 28H29.3154C25.256 28.0032 21.3637 29.5524 18.4925 32.3075C15.6213 35.0627 14.0056 38.7988 14 42.6963V227.296C14.0053 231.194 15.6205 234.931 18.4916 237.688C21.3627 240.444 25.2551 241.995 29.3154 242H242.693C246.752 241.995 250.644 240.443 253.513 237.687C256.383 234.93 257.997 231.193 258 227.296V42.6963C257.996 38.7997 256.382 35.0637 253.513 32.3084C250.643 29.5531 246.752 28.0036 242.693 28ZM256.311 227.296C256.311 230.765 254.876 234.093 252.32 236.547C249.765 239 246.299 240.379 242.685 240.379H125.616C111.18 240.379 96.8855 237.649 83.5485 232.345C70.2115 227.041 58.0932 219.267 47.8855 209.466C37.6778 199.666 29.5806 188.031 24.0563 175.226C18.5319 162.421 15.6886 148.697 15.6886 134.837V42.6963C15.6943 39.2289 17.1321 35.9051 19.6866 33.454C22.2412 31.0029 25.7039 29.6246 29.3154 29.6212H242.693C246.304 29.6249 249.765 31.0036 252.318 33.4549C254.872 35.9061 256.308 39.2297 256.311 42.6963V227.296Z" fill="#E6E6E6"/>
</g>
<g id="other all">
<path id="Vector_11" d="M437.905 432.42C437.392 432.443 436.884 432.312 436.45 432.044C436.016 431.777 435.677 431.386 435.479 430.924C435.281 430.463 435.234 429.953 435.343 429.465C435.452 428.976 435.713 428.532 436.09 428.192L436.262 427.528C436.239 427.475 436.216 427.422 436.193 427.368C435.677 426.18 434.811 425.166 433.704 424.455C432.598 423.744 431.3 423.367 429.975 423.372C428.649 423.377 427.354 423.763 426.253 424.482C425.152 425.201 424.294 426.221 423.786 427.413C421.757 432.173 419.174 436.94 418.537 441.973C418.257 444.197 418.375 446.452 418.887 448.637C414.121 438.512 411.646 427.508 411.63 416.37C411.629 413.575 411.788 410.783 412.107 408.005C412.371 405.728 412.737 403.467 413.205 401.223C415.76 389.044 421.244 377.629 429.209 367.915C433.064 365.867 436.181 362.717 438.141 358.89C438.851 357.515 439.353 356.046 439.631 354.531C439.196 354.586 437.991 348.137 438.319 347.741C437.713 346.846 436.629 346.401 435.967 345.527C432.675 341.181 428.14 341.94 425.773 347.845C420.716 350.331 420.667 354.453 423.77 358.418C425.744 360.94 426.015 364.353 427.748 367.054C427.569 367.276 427.384 367.491 427.206 367.713C423.948 371.793 421.109 376.174 418.728 380.792C419.307 375.618 418.616 370.384 416.712 365.52C414.783 360.987 411.167 357.169 407.982 353.251C404.156 348.544 396.312 350.598 395.638 356.565C395.632 356.623 395.625 356.68 395.619 356.738C396.092 356.998 396.555 357.274 397.008 357.566C397.577 357.936 398.018 358.465 398.274 359.084C398.529 359.702 398.586 360.381 398.438 361.032C398.29 361.683 397.943 362.275 397.444 362.731C396.944 363.187 396.315 363.485 395.638 363.586L395.569 363.597C395.738 365.257 396.036 366.903 396.46 368.519C392.375 383.906 401.195 389.51 413.79 389.761C414.068 389.9 414.339 390.039 414.617 390.171C412.225 396.771 410.725 403.646 410.154 410.622C409.831 414.738 409.85 418.873 410.211 422.986L410.19 422.84C409.277 418.267 406.772 414.14 403.097 411.157C397.638 406.79 389.927 405.182 384.038 401.672C383.412 401.281 382.685 401.072 381.941 401.071C381.197 401.069 380.468 401.274 379.841 401.663C379.213 402.051 378.712 402.606 378.398 403.262C378.083 403.918 377.968 404.649 378.066 405.367C378.074 405.418 378.082 405.469 378.09 405.52C378.968 405.868 379.822 406.269 380.649 406.721C381.122 406.981 381.585 407.257 382.038 407.548C382.607 407.919 383.048 408.448 383.303 409.066C383.559 409.685 383.616 410.364 383.468 411.015C383.32 411.666 382.973 412.258 382.474 412.714C381.974 413.169 381.345 413.468 380.668 413.569L380.599 413.58C380.549 413.587 380.506 413.594 380.457 413.6C381.956 417.088 384.062 420.298 386.68 423.09C389.234 436.522 400.207 437.797 411.943 433.885H411.951C413.238 439.335 415.104 444.639 417.518 449.713H437.407C437.478 449.498 437.542 449.276 437.606 449.06C435.765 449.173 433.917 449.066 432.103 448.741C433.579 446.978 435.054 445.201 436.53 443.437C436.563 443.404 436.594 443.37 436.623 443.333C437.371 442.431 438.127 441.535 438.875 440.633L438.876 440.632C438.916 437.865 438.59 435.106 437.906 432.42L437.905 432.42Z" fill="#F2F2F2"/>
<path id="Vector_12" d="M404.765 260.191C410.036 241.553 419.869 225.679 435.744 213.467C436.372 212.522 437.359 211.858 438.489 211.622C439.619 211.385 440.8 211.594 441.772 212.203L478.006 234.987C478.977 235.599 479.658 236.56 479.902 237.661C480.145 238.761 479.93 239.911 479.304 240.857L448.325 287.58C447.697 288.525 446.71 289.189 445.58 289.426C444.45 289.663 443.27 289.454 442.298 288.844L406.063 266.061C405.093 265.449 404.411 264.487 404.168 263.387C403.925 262.287 404.139 261.137 404.765 260.191V260.191Z" fill="#F2F2F2"/>
<path id="Vector_13" d="M416.902 247.826C418.26 237.978 426.625 227.912 436.817 217.788C437.406 216.903 438.33 216.281 439.389 216.059C440.447 215.837 441.552 216.033 442.463 216.604L473.603 236.185C474.512 236.758 475.15 237.658 475.378 238.689C475.606 239.719 475.405 240.796 474.819 241.682L447.252 283.26C446.664 284.145 445.739 284.766 444.681 284.988C443.622 285.21 442.517 285.014 441.607 284.443L422.316 272.314C418.268 269.762 415.424 265.751 414.409 261.16C413.394 256.569 414.29 251.774 416.902 247.826V247.826Z" fill="white"/>
<path id="Vector_14" d="M419.68 287.977C415.082 269.171 415.849 250.648 423.722 232.5C423.806 231.378 424.343 230.333 425.216 229.595C426.089 228.858 427.227 228.487 428.38 228.566L471.403 231.539C472.556 231.62 473.629 232.143 474.386 232.993C475.144 233.843 475.524 234.951 475.444 236.074L471.401 291.551C471.318 292.674 470.781 293.719 469.908 294.457C469.035 295.194 467.897 295.564 466.744 295.486L423.721 292.513C422.568 292.432 421.495 291.909 420.737 291.059C419.98 290.209 419.6 289.1 419.68 287.977V287.977Z" fill="#F2F2F2"/>
<path id="Vector_15" d="M424.201 271.449C420.522 262.182 422.874 249.436 426.8 235.783C426.878 234.732 427.381 233.753 428.199 233.063C429.016 232.372 430.082 232.025 431.162 232.099L468.137 234.653C469.217 234.729 470.221 235.219 470.931 236.015C471.64 236.812 471.996 237.85 471.921 238.901L468.324 288.268C468.246 289.32 467.743 290.298 466.925 290.989C466.107 291.68 465.042 292.027 463.962 291.953L441.057 290.37C436.247 290.033 431.771 287.851 428.611 284.304C425.451 280.757 423.866 276.134 424.201 271.449Z" fill="white"/>
<path id="Vector_16" d="M423.39 171.881L404.959 105.445C404.169 102.633 402.276 100.236 399.687 98.7705C397.099 97.3055 394.023 96.8903 391.123 97.6146C389.622 97.9893 388.216 98.6576 386.99 99.5787C385.763 100.5 384.742 101.655 383.989 102.973C383.236 104.291 382.766 105.744 382.609 107.245C382.451 108.745 382.609 110.261 383.073 111.7L404.391 180.139L415.545 222.256C413.921 223.464 412.717 225.13 412.099 227.027C411.48 228.924 411.476 230.96 412.088 232.86C412.699 234.759 413.896 236.429 415.516 237.643C417.136 238.856 419.1 239.555 421.142 239.644C423.184 239.733 425.204 239.207 426.929 238.139C428.653 237.07 429.998 235.511 430.781 233.672C431.563 231.833 431.746 229.805 431.303 227.861C430.861 225.918 429.814 224.155 428.307 222.811L423.39 171.881Z" fill="#FFB6B6"/>
<path id="Vector_17" d="M290.464 183.374L309.366 117.064C310.158 114.252 309.784 111.25 308.323 108.705C306.862 106.16 304.432 104.276 301.558 103.46C300.071 103.038 298.512 102.916 296.974 103.1C295.437 103.284 293.954 103.771 292.617 104.531C291.279 105.291 290.114 106.309 289.194 107.522C288.273 108.735 287.616 110.118 287.262 111.586L269.796 181.052L257.356 222.827C255.326 223.06 253.419 223.896 251.895 225.221C250.37 226.547 249.301 228.297 248.833 230.235C248.366 232.172 248.522 234.203 249.28 236.051C250.039 237.899 251.364 239.475 253.074 240.565C254.785 241.654 256.798 242.205 258.841 242.141C260.884 242.077 262.857 241.403 264.492 240.209C266.128 239.015 267.346 237.36 267.982 235.469C268.618 233.577 268.641 231.541 268.047 229.636L290.464 183.374Z" fill="#FFB6B6"/>
<path id="Vector_18" d="M398.63 438.09L386.585 438.089L380.856 392.847L398.632 392.848L398.63 438.09Z" fill="#FFB6B6"/>
<path id="Vector_19" d="M399.054 450.326L362.015 450.324V449.868C362.016 446.145 363.535 442.574 366.238 439.941C368.942 437.309 372.608 435.83 376.432 435.829H376.433L383.198 430.831L395.821 435.83L399.054 435.83L399.054 450.326Z" fill="#2F2E41"/>
<path id="Vector_20" d="M313.87 438.208L302.012 436.148L304.526 390.628L322.027 393.668L313.87 438.208Z" fill="#FFB6B6"/>
<path id="Vector_21" d="M312.082 450.326L275.618 443.993L275.701 443.544C276.372 439.879 278.511 436.623 281.647 434.493C284.783 432.364 288.66 431.534 292.424 432.188L292.425 432.188L299.986 428.423L311.512 435.503L314.695 436.055L312.082 450.326Z" fill="#2F2E41"/>
<path id="Vector_22" d="M315.044 230.074C315.044 230.074 303.819 245.557 304.276 250.753C304.734 255.949 308.698 251.804 304.734 255.949C300.77 260.094 298.46 257.313 300.407 262.434C302.355 267.555 303.148 264.239 302.355 267.555C301.562 270.871 303.148 397.708 303.148 397.708H323.79C323.79 397.708 335.431 324.162 333.957 320.728C332.483 317.295 332.517 318.79 334.086 315.141C335.655 311.492 337.131 307.151 337.131 307.151L353.447 262.434L366.033 325.395L380.847 400.21H400.628C400.628 400.21 404.015 290.192 405.513 288.822C407.011 287.451 405.219 284.37 403.34 282.594C401.461 280.819 401.835 279.016 402.441 275.358C403.046 271.7 405.601 269.66 405.513 267.364C405.425 265.068 410.975 228.592 402.254 222.789C393.532 216.986 315.044 230.074 315.044 230.074Z" fill="#2F2E41"/>
<path id="Vector_23" d="M384.062 75.8469L360.973 70.0202L350.195 55.5438L324.598 58.6081L319.15 78.3541L300.927 88.6549C333.593 88.845 316.001 181.004 320.803 186.95C324.71 191.789 301.301 203.3 308.638 210.643C315.974 217.986 313.262 215.048 311.559 223.042C309.857 231.037 297.447 239.497 311.559 239.413C325.671 239.329 410.825 238.145 408.392 228.667C405.959 219.19 405.998 221.597 402.329 215.655C398.66 209.713 396.191 213.033 397.426 204.265C398.66 195.497 394.651 188.715 397.444 184.835C401.731 178.88 397.411 135.889 393.368 137.036L384.062 75.8469Z" fill="#6C63FF"/>
<path id="Vector_24" d="M377.47 76.1542C377.47 76.1542 394.36 69.1666 400.442 82.1978C402.385 86.3599 404.021 96.8141 405.597 94.4958C407.173 92.1776 405.652 97.2598 406.628 97.2661C407.499 97.2717 408.838 95.9 407.826 100.626C407.509 102.176 407.6 103.779 408.091 105.286C408.582 106.792 409.457 108.153 410.634 109.241L381.279 126.362L377.47 76.1542Z" fill="#6C63FF"/>
<path id="Vector_25" d="M314.011 88.0008C314.011 88.0008 297.121 81.0131 291.039 94.0443C289.328 97.7092 289.754 105.853 286.423 104.938C283.092 104.024 285.456 107.469 285.017 108.665C284.527 109.999 286.666 113.774 283.662 112.453C280.659 111.132 280.847 121.088 280.847 121.088L310.202 138.209L314.011 88.0008Z" fill="#6C63FF"/>
<path id="Vector_26" d="M322.019 68.4844L317.153 76.777C317.153 76.777 303.772 83.8849 303.772 85.0696C303.772 86.2543 306.205 95.9274 303.772 103.53C301.339 111.132 308.416 125.429 309.854 137.194C315.937 186.95 297.849 205.028 294.04 236.705L332.642 247.685C332.642 247.685 339.05 164.442 339.05 145.487C339.05 126.533 322.019 68.4844 322.019 68.4844Z" fill="#2F2E41"/>
<path id="Vector_27" d="M357.297 64.9305L367.241 70.4386C367.241 70.4386 380.255 73.2327 380.41 74.4077C380.566 75.5826 380.612 88.0702 384.022 95.3076C387.432 102.545 386.493 106.393 395.677 127.789C400.37 138.72 411.142 226.182 411.142 226.182L374.297 241.873C374.297 241.873 357.023 160.109 354.536 141.309C352.05 122.51 357.297 64.9305 357.297 64.9305Z" fill="#2F2E41"/>
<path id="Vector_28" d="M332.432 53.6358C346.324 53.6358 357.585 42.6689 357.585 29.1406C357.585 15.6123 346.324 4.64539 332.432 4.64539C318.54 4.64539 307.279 15.6123 307.279 29.1406C307.279 42.6689 318.54 53.6358 332.432 53.6358Z" fill="#FFB6B6"/>
<path id="Vector_29" d="M348.969 48C342.989 43.4902 351.164 23.6514 341.288 27.886C341.288 27.886 329.217 20.4755 326.792 25.3452C323.984 30.9839 313.997 28.4259 307.862 26.4356C308.345 25.3545 308.687 24.2203 308.883 23.0586C307.75 23.9193 306.551 24.6944 305.295 25.377C304.452 24.9427 303.706 24.3528 303.1 23.6408C302.501 22.9797 302.127 22.1577 302.027 21.2853C301.927 20.4129 302.106 19.5319 302.54 18.7605C303.561 17.2467 305.668 16.7809 306.908 15.4364C307.051 15.2474 307.145 15.0276 307.18 14.796C307.216 14.5643 307.193 14.3277 307.114 14.1065C306.966 13.5656 306.944 12.9999 307.048 12.4497C307.153 11.8995 307.382 11.3783 307.72 10.9234C308.057 10.4684 308.494 10.0909 309 9.81756C309.506 9.54428 310.069 9.38199 310.647 9.34228C310.88 9.34914 311.11 9.30064 311.319 9.20106C312.36 8.58638 313.322 7.8543 314.183 7.02028C312.746 7.08379 314.504 -1.40518 328.756 0.202665C332.344 0.0756405 334.218 3.89347 337.752 4.4969C346.317 -0.224756 353.962 6.58627 357.682 13.0968C361.402 19.6074 365.43 40.5896 348.969 48Z" fill="#2F2E41"/>
<path id="Vector_30" d="M458.028 258.038H433.94C432.757 258.038 431.622 257.58 430.786 256.765C429.949 255.951 429.479 254.846 429.479 253.693C429.479 252.541 429.949 251.436 430.786 250.622C431.622 249.807 432.757 249.349 433.94 249.349H458.028C459.211 249.349 460.346 249.807 461.182 250.622C462.019 251.436 462.489 252.541 462.489 253.693C462.489 254.846 462.019 255.951 461.182 256.765C460.346 257.58 459.211 258.038 458.028 258.038V258.038Z" fill="#6C63FF"/>
<path id="Vector_31" d="M477.221 451.733L195.873 452C195.592 451.999 195.323 451.889 195.125 451.695C194.927 451.501 194.816 451.239 194.816 450.966C194.816 450.692 194.927 450.43 195.125 450.236C195.323 450.042 195.592 449.932 195.873 449.931L477.221 449.664C477.502 449.665 477.771 449.775 477.969 449.969C478.167 450.163 478.278 450.425 478.278 450.699C478.278 450.972 478.167 451.234 477.969 451.428C477.771 451.622 477.502 451.732 477.221 451.733V451.733Z" fill="#CACACA"/>
</g>
</g>
<defs>
<clipPath id="clip0_1_2">
<rect width="480" height="452" fill="white"/>
</clipPath>
</defs>
</svg>
